<svg xmlns="http://www.w3.org/2000/svg" width="1041.277" height="554.141" viewBox="0 0 1041.277 554.141">
  <title>Powered by React</title>
  <g id="Group_24" data-name="Group 24" transform="translate(-440 -263)">
    <g id="Group_23" data-name="Group 23" transform="translate(439.989 262.965)">
      <path id="Path_299" data-name="Path 299" d="M1040.82,611.12q-1.74,3.75-3.47,7.4-2.7,5.67-5.33,11.12c-.78,1.61-1.56,3.19-2.32,4.77-8.6,17.57-16.63,33.11-23.45,45.89A73.21,73.21,0,0,1,942.44,719l-151.65,1.65h-1.6l-13,.14-11.12.12-34.1.37h-1.38l-17.36.19h-.53l-107,1.16-95.51,1-11.11.12-69,.75H429l-44.75.48h-.48l-141.5,1.53-42.33.46a87.991,87.991,0,0,1-10.79-.54h0c-1.22-.14-2.44-.3-3.65-.49a87.38,87.38,0,0,1-51.29-27.54C116,678.37,102.75,655,93.85,629.64q-1.93-5.49-3.6-11.12C59.44,514.37,97,380,164.6,290.08q4.25-5.64,8.64-11l.07-.08c20.79-25.52,44.1-46.84,68.93-62,44-26.91,92.75-34.49,140.7-11.9,40.57,19.12,78.45,28.11,115.17,30.55,3.71.24,7.42.42,11.11.53,84.23,2.65,163.17-27.7,255.87-47.29,3.69-.78,7.39-1.55,11.12-2.28,66.13-13.16,139.49-20.1,226.73-5.51a189.089,189.089,0,0,1,26.76,6.4q5.77,1.86,11.12,4c41.64,16.94,64.35,48.24,74,87.46q1.37,5.46,2.37,11.11C1134.3,384.41,1084.19,518.23,1040.82,611.12Z" transform="translate(-79.34 -172.91)" fill="#f2f2f2"/>
      <path id="Path_300" data-name="Path 300" d="M576.36,618.52a95.21,95.21,0,0,1-1.87,11.12h93.7V618.52Zm-78.25,62.81,11.11-.09V653.77c-3.81-.17-7.52-.34-11.11-.52ZM265.19,618.52v11.12h198.5V618.52ZM1114.87,279h-74V191.51q-5.35-2.17-11.12-4V279H776.21V186.58c-3.73.73-7.43,1.5-11.12,2.28V279H509.22V236.15c-3.69-.11-7.4-.29-11.11-.53V279H242.24V217c-24.83,15.16-48.14,36.48-68.93,62h-.07v.08q-4.4,5.4-8.64,11h8.64V618.52h-83q1.66,5.63,3.6,11.12h79.39v93.62a87,87,0,0,0,12.2,2.79c1.21.19,2.43.35,3.65.49h0a87.991,87.991,0,0,0,10.79.54l42.33-.46v-97H498.11v94.21l11.11-.12V629.64H765.09V721l11.12-.12V629.64H1029.7v4.77c.76-1.58,1.54-3.16,2.32-4.77q2.63-5.45,5.33-11.12,1.73-3.64,3.47-7.4v-321h76.42Q1116.23,284.43,1114.87,279ZM242.24,618.52V290.08H498.11V618.52Zm267,0V290.08H765.09V618.52Zm520.48,0H776.21V290.08H1029.7Z" transform="translate(-79.34 -172.91)" opacity="0.1"/>
      <path id="Path_301" data-name="Path 301" d="M863.09,533.65v13l-151.92,1.4-1.62.03-57.74.53-1.38.02-17.55.15h-.52l-106.98.99L349.77,551.4h-.15l-44.65.42-.48.01-198.4,1.82v-15l46.65-28,93.6-.78,2-.01.66-.01,2-.03,44.94-.37,2.01-.01.64-.01,2-.01L315,509.3l.38-.01,35.55-.3h.29l277.4-2.34,6.79-.05h.68l5.18-.05,37.65-.31,2-.03,1.85-.02h.96l11.71-.09,2.32-.03,3.11-.02,9.75-.09,15.47-.13,2-.02,3.48-.02h.65l74.71-.64Z" fill="#65617d"/>
      <path id="Path_302" data-name="Path 302" d="M863.09,533.65v13l-151.92,1.4-1.62.03-57.74.53-1.38.02-17.55.15h-.52l-106.98.99L349.77,551.4h-.15l-44.65.42-.48.01-198.4,1.82v-15l46.65-28,93.6-.78,2-.01.66-.01,2-.03,44.94-.37,2.01-.01.64-.01,2-.01L315,509.3l.38-.01,35.55-.3h.29l277.4-2.34,6.79-.05h.68l5.18-.05,37.65-.31,2-.03,1.85-.02h.96l11.71-.09,2.32-.03,3.11-.02,9.75-.09,15.47-.13,2-.02,3.48-.02h.65l74.71-.64Z" opacity="0.2"/>
      <path id="Path_303" data-name="Path 303" d="M375.44,656.57v24.49a6.13,6.13,0,0,1-3.5,5.54,6,6,0,0,1-2.5.6l-34.9.74a6,6,0,0,1-2.7-.57,6.12,6.12,0,0,1-3.57-5.57V656.57Z" transform="translate(-79.34 -172.91)" fill="#3f3d56"/>
      <path id="Path_304" data-name="Path 304" d="M375.44,656.57v24.49a6.13,6.13,0,0,1-3.5,5.54,6,6,0,0,1-2.5.6l-34.9.74a6,6,0,0,1-2.7-.57,6.12,6.12,0,0,1-3.57-5.57V656.57Z" transform="translate(-79.34 -172.91)" opacity="0.1"/>
      <path id="Path_305" data-name="Path 305" d="M377.44,656.57v24.49a6.13,6.13,0,0,1-3.5,5.54,6,6,0,0,1-2.5.6l-34.9.74a6,6,0,0,1-2.7-.57,6.12,6.12,0,0,1-3.57-5.57V656.57Z" transform="translate(-79.34 -172.91)" fill="#3f3d56"/>
      <rect id="Rectangle_137" data-name="Rectangle 137" width="47.17" height="31.5" transform="translate(680.92 483.65)" fill="#3f3d56"/>
      <rect id="Rectangle_138" data-name="Rectangle 138" width="47.17" height="31.5" transform="translate(680.92 483.65)" opacity="0.1"/>
      <rect id="Rectangle_139" data-name="Rectangle 139" width="47.17" height="31.5" transform="translate(678.92 483.65)" fill="#3f3d56"/>
      <path id="Path_306" data-name="Path 306" d="M298.09,483.65v4.97l-47.17,1.26v-6.23Z" opacity="0.1"/>
      <path id="Path_307" data-name="Path 307" d="M460.69,485.27v168.2a4,4,0,0,1-3.85,3.95l-191.65,5.1h-.05a4,4,0,0,1-3.95-3.95V485.27a4,4,0,0,1,3.95-3.95h191.6a4,4,0,0,1,3.95,3.95Z" transform="translate(-79.34 -172.91)" fill="#65617d"/>
      <path id="Path_308" data-name="Path 308" d="M265.19,481.32v181.2h-.05a4,4,0,0,1-3.95-3.95V485.27a4,4,0,0,1,3.95-3.95Z" transform="translate(-79.34 -172.91)" opacity="0.1"/>
      <path id="Path_309" data-name="Path 309" d="M194.59,319.15h177.5V467.4l-177.5,4Z" fill="#39374d"/>
      <path id="Path_310" data-name="Path 310" d="M726.09,483.65v6.41l-47.17-1.26v-5.15Z" opacity="0.1"/>
      <path id="Path_311" data-name="Path 311" d="M867.69,485.27v173.3a4,4,0,0,1-4,3.95h0L672,657.42a4,4,0,0,1-3.85-3.95V485.27a4,4,0,0,1,3.95-3.95H863.7a4,4,0,0,1,3.99,3.95Z" transform="translate(-79.34 -172.91)" fill="#65617d"/>
      <path id="Path_312" data-name="Path 312" d="M867.69,485.27v173.3a4,4,0,0,1-4,3.95h0V481.32h0a4,4,0,0,1,4,3.95Z" transform="translate(-79.34 -172.91)" opacity="0.1"/>
      <path id="Path_313" data-name="Path 313" d="M775.59,319.15H598.09V467.4l177.5,4Z" fill="#39374d"/>
      <path id="Path_314" data-name="Path 314" d="M663.19,485.27v168.2a4,4,0,0,1-3.85,3.95l-191.65,5.1h0a4,4,0,0,1-4-3.95V485.27a4,4,0,0,1,3.95-3.95h191.6A4,4,0,0,1,663.19,485.27Z" transform="translate(-79.34 -172.91)" fill="#65617d"/>
      <path id="Path_315" data-name="Path 315" d="M397.09,319.15h177.5V467.4l-177.5,4Z" fill="#4267b2"/>
      <path id="Path_316" data-name="Path 316" d="M863.09,533.65v13l-151.92,1.4-1.62.03-57.74.53-1.38.02-17.55.15h-.52l-106.98.99L349.77,551.4h-.15l-44.65.42-.48.01-198.4,1.82v-15l202.51-1.33h.48l40.99-.28h.19l283.08-1.87h.29l.17-.01h.47l4.79-.03h1.46l74.49-.5,4.4-.02.98-.01Z" opacity="0.1"/>
      <circle id="Ellipse_111" data-name="Ellipse 111" cx="51.33" cy="51.33" r="51.33" transform="translate(435.93 246.82)" fill="#fbbebe"/>
      <path id="Path_317" data-name="Path 317" d="M617.94,550.07s-99.5,12-90,0c3.44-4.34,4.39-17.2,4.2-31.85-.06-4.45-.22-9.06-.45-13.65-1.1-22-3.75-43.5-3.75-43.5s87-41,77-8.5c-4,13.13-2.69,31.57.35,48.88.89,5.05,1.92,10,3,14.7a344.66,344.66,0,0,0,9.65,33.92Z" transform="translate(-79.34 -172.91)" fill="#fbbebe"/>
      <path id="Path_318" data-name="Path 318" d="M585.47,546c11.51-2.13,23.7-6,34.53-1.54,2.85,1.17,5.47,2.88,8.39,3.86s6.12,1.22,9.16,1.91c10.68,2.42,19.34,10.55,24.9,20s8.44,20.14,11.26,30.72l6.9,25.83c6,22.45,12,45.09,13.39,68.3a2437.506,2437.506,0,0,1-250.84,1.43c5.44-10.34,11-21.31,10.54-33s-7.19-23.22-4.76-34.74c1.55-7.34,6.57-13.39,9.64-20.22,8.75-19.52,1.94-45.79,17.32-60.65,6.92-6.68,17-9.21,26.63-8.89,12.28.41,24.85,4.24,37,6.11C555.09,547.48,569.79,548.88,585.47,546Z" transform="translate(-79.34 -172.91)" fill="#ff6584"/>
      <path id="Path_319" data-name="Path 319" d="M716.37,657.17l-.1,1.43v.1l-.17,2.3-1.33,18.51-1.61,22.3-.46,6.28-1,13.44v.17l-107,1-175.59,1.9v.84h-.14v-1.12l.45-14.36.86-28.06.74-23.79.07-2.37a10.53,10.53,0,0,1,11.42-10.17c4.72.4,10.85.89,18.18,1.41l3,.22c42.33,2.94,120.56,6.74,199.5,2,1.66-.09,3.33-.19,5-.31,12.24-.77,24.47-1.76,36.58-3a10.53,10.53,0,0,1,11.6,11.23Z" transform="translate(-79.34 -172.91)" opacity="0.1"/>
      <path id="Path_320" data-name="Path 320" d="M429.08,725.44v-.84l175.62-1.91,107-1h.3v-.17l1-13.44.43-6,1.64-22.61,1.29-17.9v-.44a10.617,10.617,0,0,0-.11-2.47.3.3,0,0,0,0-.1,10.391,10.391,0,0,0-2-4.64,10.54,10.54,0,0,0-9.42-4c-12.11,1.24-24.34,2.23-36.58,3-1.67.12-3.34.22-5,.31-78.94,4.69-157.17.89-199.5-2l-3-.22c-7.33-.52-13.46-1-18.18-1.41a10.54,10.54,0,0,0-11.24,8.53,11,11,0,0,0-.18,1.64l-.68,22.16L429.54,710l-.44,14.36v1.12Z" transform="translate(-79.34 -172.91)" fill="#3f3d56"/>
      <path id="Path_321" data-name="Path 321" d="M716.67,664.18l-1.23,15.33-1.83,22.85-.46,5.72-1,12.81-.06.64v.17h0l-.15,1.48.11-1.48h-.29l-107,1-175.65,1.9v-.28l.49-14.36,1-28.06.64-18.65A6.36,6.36,0,0,1,434.3,658a6.25,6.25,0,0,1,3.78-.9c2.1.17,4.68.37,7.69.59,4.89.36,10.92.78,17.94,1.22,13,.82,29.31,1.7,48,2.42,52,2,122.2,2.67,188.88-3.17,3-.26,6.1-.55,9.13-.84a6.26,6.26,0,0,1,3.48.66,5.159,5.159,0,0,1,.86.54,6.14,6.14,0,0,1,2,2.46,3.564,3.564,0,0,1,.25.61A6.279,6.279,0,0,1,716.67,664.18Z" transform="translate(-79.34 -172.91)" opacity="0.1"/>
      <path id="Path_322" data-name="Path 322" d="M377.44,677.87v3.19a6.13,6.13,0,0,1-3.5,5.54l-40.1.77a6.12,6.12,0,0,1-3.57-5.57v-3Z" transform="translate(-79.34 -172.91)" opacity="0.1"/>
      <path id="Path_323" data-name="Path 323" d="M298.59,515.57l-52.25,1V507.9l52.25-1Z" fill="#3f3d56"/>
      <path id="Path_324" data-name="Path 324" d="M298.59,515.57l-52.25,1V507.9l52.25-1Z" opacity="0.1"/>
      <path id="Path_325" data-name="Path 325" d="M300.59,515.57l-52.25,1V507.9l52.25-1Z" fill="#3f3d56"/>
      <path id="Path_326" data-name="Path 326" d="M758.56,679.87v3.19a6.13,6.13,0,0,0,3.5,5.54l40.1.77a6.12,6.12,0,0,0,3.57-5.57v-3Z" transform="translate(-79.34 -172.91)" opacity="0.1"/>
      <path id="Path_327" data-name="Path 327" d="M678.72,517.57l52.25,1V509.9l-52.25-1Z" opacity="0.1"/>
      <path id="Path_328" data-name="Path 328" d="M676.72,517.57l52.25,1V509.9l-52.25-1Z" fill="#3f3d56"/>
      <path id="Path_329" data-name="Path 329" d="M534.13,486.79c.08,7-3.16,13.6-5.91,20.07a163.491,163.491,0,0,0-12.66,74.71c.73,11,2.58,22,.73,32.9s-8.43,21.77-19,24.9c17.53,10.45,41.26,9.35,57.76-2.66,8.79-6.4,15.34-15.33,21.75-24.11a97.86,97.86,0,0,1-13.31,44.75A103.43,103.43,0,0,0,637,616.53c4.31-5.81,8.06-12.19,9.72-19.23,3.09-13-1.22-26.51-4.51-39.5a266.055,266.055,0,0,1-6.17-33c-.43-3.56-.78-7.22.1-10.7,1-4.07,3.67-7.51,5.64-11.22,5.6-10.54,5.73-23.3,2.86-34.88s-8.49-22.26-14.06-32.81c-4.46-8.46-9.3-17.31-17.46-22.28-5.1-3.1-11-4.39-16.88-5.64l-25.37-5.43c-5.55-1.19-11.26-2.38-16.87-1.51-9.47,1.48-16.14,8.32-22,15.34-4.59,5.46-15.81,15.71-16.6,22.86-.72,6.59,5.1,17.63,6.09,24.58,1.3,9,2.22,6,7.3,11.52C532,478.05,534.07,482,534.13,486.79Z" transform="translate(-79.34 -172.91)" fill="#3f3d56"/>
    </g>
    <g transform="translate(670, 590) scale(0.23)">
      <g class="G H I J">
        <path d="M436.316 240.087c7.732.02 13.162-2.095 15.106-9.772 1.842-7.273-1.433-16.62-9.982-17.97-4.987-.788-16.906-.177-28.067 1.593 2.595 7.532 4.938 15.74 7.02 24.484 6.062 1.042 11.675 1.655 15.922 1.666zm15.446 232.3c-8.434-9.02-20.476-14.647-33.413-15.726-4.126 10.828-9.124 19.56-14.866 26.967 11.273 1.652 18.73 6.738 27.623 12.456 13.666 8.785 33-10.48 20.656-23.697zM171.953 586.34c-.258 20.1 29.262 20.428 35.16 3.37 3.47-10.04 6.272-18.82 13.216-27.204-12.122-.898-24.108-3.423-35.536-8.07-7.8 10-12.696 20.644-12.84 31.906z" fill="#f6d2a2"/>
        <path d="M37.7 180.366a11.35 11.35 0 1 1-2.374-22.587c1.456-.153 2.872-.013 4.203.355-.407-8.924-.016-17.2 1.12-24.897-24.907.93-36.32 15.463-37.555 33.13-1.3 18.742 11.14 37.468 34.56 39.105 3.65.255 6.895.05 9.774-.552-2.455-9.115-4.338-17.702-5.655-25.792-1.234.647-2.604 1.085-4.073 1.24z" class="K" style="fill:#6AD7E5"/>
      </g>
      <path d="M35.327 157.778a11.35 11.35 0 0 0-10.091 12.479c.656 6.237 6.237 10.763 12.465 10.108 1.47-.154 2.84-.592 4.073-1.24-1.204-7.4-1.942-14.372-2.244-20.994-1.33-.367-2.747-.507-4.203-.354z"/>
      <path d="M309.592 37.468c.5-.68 1.096-1.317 1.774-1.887a11.36 11.36 0 0 1 15.987 1.4c3.967 4.73 3.42 11.73-1.172 15.788a229.85 229.85 0 0 1 16.583 18.841c1.7-1.844 3.317-4.046 4.827-6.66 11.736-20.332 3.176-41.127-13.096-50.52-14.12-8.15-30.86-7.664-44.898 8.17 1.848 1.18 3.665 2.4 5.448 3.66a226.02 226.02 0 0 1 14.547 11.2z" class="G H I J K" style="fill:#6AD7E5"/>
      <path d="M327.354 36.992a11.35 11.35 0 0 0-15.987-1.41 11.3 11.3 0 0 0-1.774 1.887c5.5 4.587 11.06 9.677 16.6 15.312 4.6-4.06 5.138-11.06 1.17-15.8z"/>
      <g class="I G H">
        <g stroke-miterlimit="10">
          <path fill="#f6d2a2" d="M127.003 523.285c1.946 4.36 12.64 4.612 19.787-.134-3.704-6.098-6.562-12.668-8.77-19.53-7.613 5.026-14.067 12.826-11.017 19.665z"/>
          <path d="M420.393 238.42c-2.082-8.744-4.426-16.952-7.02-24.484-6.52-18.92-14.62-33.558-24.152-41.55-9.144-42.65-26.687-75.66-46.455-100.765a230 230 0 0 0-16.583-18.84 229.1 229.1 0 0 0-16.59-15.312c-4.943-4.13-9.822-7.865-14.546-11.2-1.783-1.26-3.6-2.48-5.448-3.66-38.035-24.282-89.932-31.174-159.703 9.577-48.626 28.4-82.414 54.617-89.247 101.05-1.134 7.708-1.525 15.973-1.12 24.897.302 6.622 1.04 13.604 2.244 20.994 1.317 8.1 3.2 16.676 5.655 25.792 2.433 9.035 5.425 18.587 9.033 28.736 12.14 34.15 34.26 67 46.802 85.997 12.7 19.258 24.75 54.917 26.63 90.017 1.416 26.414-1.78 63.135 8.125 93.95 2.207 6.863 5.066 13.434 8.77 19.53 6.542 10.775 15.72 20.08 28.625 26.918 3.076 1.63 6.207 3.075 9.378 4.365 11.428 4.648 23.415 7.173 35.536 8.07 50.47 3.74 103.228-20.578 127.2-35.837 22.083-14.05 41.403-24.28 55.943-43.03 5.742-7.406 10.74-16.14 14.866-26.967 4.834-12.688 8.474-28.246 10.716-47.902 6.42-56.267 2.94-121.584-8.67-170.347z" class="K" style="fill:#6AD7E5"/>
        </g>
        <g fill="#fff">
          <ellipse cx="235.646" cy="67.681" rx="52.2" ry="51.3"/>
          <ellipse cx="118.851" cy="127.081" rx="52.2" ry="51.3"/>
        </g>
      </g>
      <circle cx="263.996" cy="59.581" r="16.2"/>
      <circle fill="#fff" cx="272.096" cy="60.481" r="3.6"/>
      <circle cx="146.095" cy="116.281" r="16.2"/>
      <g fill="#fff">
        <circle cx="154.196" cy="117.181" r="3.6"/>
        <path d="M213.083 169.078c-9.664 4.506-9.3 9.495-16.832 14.72l7.977 20.67c7.355 18.73 28.82 4.246 23.938-6.716l-13.135-29.504a32.66 32.66 0 0 0-1.948.83zm25.892-4.728c-11.064 4.464-14.537.238-23.943 3.898l13.135 29.504c4.88 10.962 30.008 4.7 21-13.295l-10.2-20.107zM322 287.733c-6.82-3.034-19.595-4.724-31.342-3.582-1.084 5.84-3.293 11.6-7.715 17.345 9.8 5.708 19.227 9.624 26.928 11.7 7.463 2.02 13.256 1.383 17.12-5.53 3.662-6.55 2.918-16.427-4.992-19.944z" class="G H I J"/>
      </g>
      <g class="G H I J">
        <path fill="none" d="M265.866 316.368c7.8-4.978 13.256-9.92 17.066-14.872 4.422-5.745 6.63-11.503 7.715-17.345.854-4.598 1.018-9.247 1.018-13.982" class="L"/>
        <path fill="#f6d2a2" d="M241.202 134.614c-5.883-2.508-11.642-2.74-18.45-1.058-1.165 6.392-7.955 13.58-17.718 17.926-9.4 4.18-18.893 4.56-24.525 1.55-6.176 4.3-9.948 9-11.9 15.435-3.83 12.607 6.07 24.543 16.988 20.563 4.838-1.764 8.174-3.5 10.656-5.232 7.532-5.225 7.168-10.214 16.832-14.72a32.4 32.4 0 0 1 1.949-.83c9.406-3.66 12.88.566 23.943-3.898 2.062-.832 4.38-1.96 7.06-3.503 10.066-5.805 7.288-21.062-4.833-26.232z"/>
      </g>
      <path d="M205.034 151.482c9.763-4.347 16.553-11.534 17.718-17.926.352-1.932.196-3.792-.554-5.48-3.234-7.265-16.163-8.566-28.878-2.906s-20.4 16.14-17.165 23.405c.846 1.9 2.36 3.388 4.354 4.454 5.632 3.012 15.135 2.633 24.525-1.548z"/>
      <path d="M451.858 227.863c-4.442-.877-10.908-1.992-16.275-2.222M450.958 492c-1.538-4.26-5.707-12.555-14.208-16.15M186.405 600.925c-1.58-4.777-3.198-13.38.462-23.578m141.17-271.927c-4.063-1.998-10.02-4.748-15.145-6.36" fill="none" class="G H I J L"/>
    </g>

    <g transform="translate(1050, 585) scale(4.6)">
      <path d="M5.987,17.15c.04.826.865.444,1.239.186.355-.245.459-.041.49-.525a7.937,7.937,0,0,0,.039-.955,2.342,2.342,0,0,0-1.56.4c-.227.165-.651.69-.208.9" style="fill:#f6d2a2;fill-rule:evenodd"/>
      <path d="M5.987,17.15a.65.65,0,0,0,.329-.185" style="fill:#c6b198;fill-rule:evenodd"/>
      <path d="M7.894,7.309C4.731,6.42,7.083,2.4,9.622,4.052Z" style="fill:#6ad7e5;fill-rule:evenodd"/>
      <path d="M21.944,3.75c2.5-1.758,4.765,2.209,1.856,3.207Z" style="fill:#6ad7e5;fill-rule:evenodd"/>
      <path d="M22.483,27.317c.636.393,1.8,1.583.844,2.16-.916.839-1.429-.921-2.234-1.165A2.225,2.225,0,0,1,22.483,27.317Z" style="fill:#f6d2a2;fill-rule:evenodd"/>
      <path d="M11.124,28.662c-.746.115-1.166.789-1.788,1.131-.586.35-.811-.112-.863-.206-.092-.042-.084.039-.226-.1C7.7,28.625,8.812,28,9.39,27.572,10.195,27.409,10.7,28.107,11.124,28.662Z" style="fill:#f6d2a2;fill-rule:evenodd"/>
      <path d="M8.026,6.2c-.417-.221-.723-.52-.468-1,.236-.447.675-.4,1.092-.178Z" style="fill-rule:evenodd"/>
      <path d="M23.141,5.778c.417-.221.723-.52.468-1-.236-.447-.675-.4-1.092-.178Z" style="fill-rule:evenodd"/>
      <path d="M26.013,17.046c-.04.826-.865.444-1.239.186-.355-.245-.459-.041-.49-.525a7.936,7.936,0,0,1-.039-.955,2.342,2.342,0,0,1,1.56.4c.227.165.651.69.208.9" style="fill:#f6d2a2;fill-rule:evenodd"/>
      <path d="M26.013,17.046a.65.65,0,0,1-.329-.185" style="fill:#c6b198;fill-rule:evenodd"/>
      <path d="M15.683,2.079c3.166,0,6.134.453,7.681,3.495,1.389,3.409.895,7.086,1.107,10.689.182,3.094.585,6.668-.85,9.536-1.51,3.016-5.283,3.775-8.392,3.664-2.442-.087-5.391-.884-6.769-3.115-1.617-2.617-.851-6.509-.734-9.421.139-3.449-.934-6.91.2-10.285,1.176-3.5,4.346-4.293,7.758-4.563" style="fill:#6ad7e5;fill-rule:evenodd"/>
      <path d="M16.242,6.329c.568,3.3,5.97,2.431,5.194-.9-.7-2.988-5.383-2.161-5.194.9" style="fill:#fff;fill-rule:evenodd"/>
      <path d="M9.788,6.863C10.524,9.74,15.13,9,14.956,6.118c-.208-3.456-5.873-2.789-5.169.745" style="fill:#fff;fill-rule:evenodd"/>
      <path d="M16.894,10.294a7.45,7.45,0,0,1,.016,1.369c-.11.207-.325.229-.51.313a.751.751,0,0,1-.575-.449,9.72,9.72,0,0,1,.041-1.549Z" style="fill:#fff;fill-rule:evenodd"/>
      <ellipse cx="11.058" cy="6.394" rx="0.778" ry="0.842"/>
      <ellipse cx="11.412" cy="6.584" rx="0.183" ry="0.214" style="fill:#fff"/>
      <ellipse cx="17.574" cy="6.184" rx="0.765" ry="0.842"/>
      <ellipse cx="17.922" cy="6.374" rx="0.18" ry="0.214" style="fill:#fff"/>
      <path d="M14.671,10.247c-.339.822.189,2.467,1.11,1.254a9.72,9.72,0,0,1,.041-1.549Z" style="fill:#fff;fill-rule:evenodd"/>
      <path d="M14.787,8.663a1,1,0,0,0-.821,1.4c.435.788,1.407-.07,2.013.011.7.014,1.268.737,1.827.131.622-.674-.268-1.331-.964-1.624Z" style="fill:#f6d2a2;fill-rule:evenodd"/>
      <path d="M14.708,8.63C14.661,7.535,16.75,7.4,17,8.315s-2.186,1.128-2.289.316Z" style="fill-rule:evenodd"/>
    </g>
    </g>
</svg>