<svg xmlns="http://www.w3.org/2000/svg" width="1088" height="687.962" viewBox="0 0 1088 687.962">
    <title>Easy to Use</title>
    <g id="Group_12" data-name="Group 12" transform="translate(-57 -56)">
      <g id="Group_11" data-name="Group 11" transform="translate(57 56)">
        <path id="Path_83" data-name="Path 83" d="M1017.81,560.461c-5.27,45.15-16.22,81.4-31.25,110.31-20,38.52-54.21,54.04-84.77,70.28a193.275,193.275,0,0,1-27.46,11.94c-55.61,19.3-117.85,14.18-166.74,3.99a657.282,657.282,0,0,0-104.09-13.16q-14.97-.675-29.97-.67c-15.42.02-293.07,5.29-360.67-131.57-16.69-33.76-28.13-75-32.24-125.27-11.63-142.12,52.29-235.46,134.74-296.47,155.97-115.41,369.76-110.57,523.43,7.88C941.15,276.621,1036.99,396.031,1017.81,560.461Z" transform="translate(-56 -106.019)" fill="#3f3d56"/>
        <path id="Path_84" data-name="Path 84" d="M986.56,670.771c-20,38.52-47.21,64.04-77.77,80.28a193.272,193.272,0,0,1-27.46,11.94c-55.61,19.3-117.85,14.18-166.74,3.99a657.3,657.3,0,0,0-104.09-13.16q-14.97-.675-29.97-.67-23.13.03-46.25,1.72c-100.17,7.36-253.82-6.43-321.42-143.29L382,283.981,444.95,445.6l20.09,51.59,55.37-75.98L549,381.981l130.2,149.27,36.8-81.27L970.78,657.9l14.21,11.59Z" transform="translate(-56 -106.019)" fill="#f2f2f2"/>
        <path id="Path_85" data-name="Path 85" d="M302,282.962l26-57,36,83-31-60Z" opacity="0.1"/>
        <path id="Path_86" data-name="Path 86" d="M610.5,753.821q-14.97-.675-29.97-.67L465.04,497.191Z" transform="translate(-56 -106.019)" opacity="0.1"/>
        <path id="Path_87" data-name="Path 87" d="M464.411,315.191,493,292.962l130,150-132-128Z" opacity="0.1"/>
        <path id="Path_88" data-name="Path 88" d="M908.79,751.051a193.265,193.265,0,0,1-27.46,11.94L679.2,531.251Z" transform="translate(-56 -106.019)" opacity="0.1"/>
        <circle id="Ellipse_11" data-name="Ellipse 11" cx="3" cy="3" r="3" transform="translate(479 98.962)" fill="#f2f2f2"/>
        <circle id="Ellipse_12" data-name="Ellipse 12" cx="3" cy="3" r="3" transform="translate(396 201.962)" fill="#f2f2f2"/>
        <circle id="Ellipse_13" data-name="Ellipse 13" cx="2" cy="2" r="2" transform="translate(600 220.962)" fill="#f2f2f2"/>
        <circle id="Ellipse_14" data-name="Ellipse 14" cx="2" cy="2" r="2" transform="translate(180 265.962)" fill="#f2f2f2"/>
        <circle id="Ellipse_15" data-name="Ellipse 15" cx="2" cy="2" r="2" transform="translate(612 96.962)" fill="#f2f2f2"/>
        <circle id="Ellipse_16" data-name="Ellipse 16" cx="2" cy="2" r="2" transform="translate(736 192.962)" fill="#f2f2f2"/>
        <circle id="Ellipse_17" data-name="Ellipse 17" cx="2" cy="2" r="2" transform="translate(858 344.962)" fill="#f2f2f2"/>
        <path id="Path_89" data-name="Path 89" d="M306,121.222h-2.76v-2.76h-1.48v2.76H299V122.7h2.76v2.759h1.48V122.7H306Z" fill="#f2f2f2"/>
        <path id="Path_90" data-name="Path 90" d="M848,424.222h-2.76v-2.76h-1.48v2.76H841V425.7h2.76v2.759h1.48V425.7H848Z" fill="#f2f2f2"/>
        <path id="Path_91" data-name="Path 91" d="M1144,719.981c0,16.569-243.557,74-544,74s-544-57.431-544-74,243.557,14,544,14S1144,703.413,1144,719.981Z" transform="translate(-56 -106.019)" fill="#3f3d56"/>
        <path id="Path_92" data-name="Path 92" d="M1144,719.981c0,16.569-243.557,74-544,74s-544-57.431-544-74,243.557,14,544,14S1144,703.413,1144,719.981Z" transform="translate(-56 -106.019)" opacity="0.1"/>
        <ellipse id="Ellipse_18" data-name="Ellipse 18" cx="544" cy="30" rx="544" ry="30" transform="translate(0 583.962)" fill="#3f3d56"/>
        <path id="Path_93" data-name="Path 93" d="M624,677.981c0,33.137-14.775,24-33,24s-33,9.137-33-24,33-96,33-96S624,644.844,624,677.981Z" transform="translate(-56 -106.019)" fill="#ff6584"/>
        <path id="Path_94" data-name="Path 94" d="M606,690.66c0,15.062-6.716,10.909-15,10.909s-15,4.153-15-10.909,15-43.636,15-43.636S606,675.6,606,690.66Z" transform="translate(-56 -106.019)" opacity="0.1"/>
        <rect id="Rectangle_97" data-name="Rectangle 97" width="92" height="18" rx="9" transform="translate(489 604.962)" fill="#2f2e41"/>
        <rect id="Rectangle_98" data-name="Rectangle 98" width="92" height="18" rx="9" transform="translate(489 586.962)" fill="#2f2e41"/>
        <path id="Path_95" data-name="Path 95" d="M193,596.547c0,55.343,34.719,100.126,77.626,100.126" transform="translate(-56 -106.019)" fill="#3f3d56"/>
        <path id="Path_96" data-name="Path 96" d="M270.626,696.673c0-55.965,38.745-101.251,86.626-101.251" transform="translate(-56 -106.019)" fill="#6c63ff"/>
        <path id="Path_97" data-name="Path 97" d="M221.125,601.564c0,52.57,22.14,95.109,49.5,95.109" transform="translate(-56 -106.019)" fill="#6c63ff"/>
        <path id="Path_98" data-name="Path 98" d="M270.626,696.673c0-71.511,44.783-129.377,100.126-129.377" transform="translate(-56 -106.019)" fill="#3f3d56"/>
        <path id="Path_99" data-name="Path 99" d="M254.3,697.379s11.009-.339,14.326-2.7,16.934-5.183,17.757-1.395,16.544,18.844,4.115,18.945-28.879-1.936-32.19-3.953S254.3,697.379,254.3,697.379Z" transform="translate(-56 -106.019)" fill="#a8a8a8"/>
        <path id="Path_100" data-name="Path 100" d="M290.716,710.909c-12.429.1-28.879-1.936-32.19-3.953-2.522-1.536-3.527-7.048-3.863-9.591l-.368.014s.7,8.879,4.009,10.9,19.761,4.053,32.19,3.953c3.588-.029,4.827-1.305,4.759-3.2C294.755,710.174,293.386,710.887,290.716,710.909Z" transform="translate(-56 -106.019)" opacity="0.2"/>
        <path id="Path_101" data-name="Path 101" d="M777.429,633.081c0,38.029,23.857,68.8,53.341,68.8" transform="translate(-56 -106.019)" fill="#3f3d56"/>
        <path id="Path_102" data-name="Path 102" d="M830.769,701.882c0-38.456,26.623-69.575,59.525-69.575" transform="translate(-56 -106.019)" fill="#6c63ff"/>
        <path id="Path_103" data-name="Path 103" d="M796.755,636.528c0,36.124,15.213,65.354,34.014,65.354" transform="translate(-56 -106.019)" fill="#6c63ff"/>
        <path id="Path_104" data-name="Path 104" d="M830.769,701.882c0-49.139,30.773-88.9,68.8-88.9" transform="translate(-56 -106.019)" fill="#3f3d56"/>
        <path id="Path_105" data-name="Path 105" d="M819.548,702.367s7.565-.233,9.844-1.856,11.636-3.562,12.2-.958,11.368,12.949,2.828,13.018-19.844-1.33-22.119-2.716S819.548,702.367,819.548,702.367Z" transform="translate(-56 -106.019)" fill="#a8a8a8"/>
        <path id="Path_106" data-name="Path 106" d="M844.574,711.664c-8.54.069-19.844-1.33-22.119-2.716-1.733-1.056-2.423-4.843-2.654-6.59l-.253.01s.479,6.1,2.755,7.487,13.579,2.785,22.119,2.716c2.465-.02,3.317-.9,3.27-2.2C847.349,711.159,846.409,711.649,844.574,711.664Z" transform="translate(-56 -106.019)" opacity="0.2"/>
        <path id="Path_107" data-name="Path 107" d="M949.813,724.718s11.36-1.729,14.5-4.591,16.89-7.488,18.217-3.667,19.494,17.447,6.633,19.107-30.153,1.609-33.835-.065S949.813,724.718,949.813,724.718Z" transform="translate(-56 -106.019)" fill="#a8a8a8"/>
        <path id="Path_108" data-name="Path 108" d="M989.228,734.173c-12.86,1.659-30.153,1.609-33.835-.065-2.8-1.275-4.535-6.858-5.2-9.45l-.379.061s1.833,9.109,5.516,10.783,20.975,1.725,33.835.065c3.712-.479,4.836-1.956,4.529-3.906C993.319,732.907,991.991,733.817,989.228,734.173Z" transform="translate(-56 -106.019)" opacity="0.2"/>
        <path id="Path_109" data-name="Path 109" d="M670.26,723.9s9.587-1.459,12.237-3.875,14.255-6.32,15.374-3.095,16.452,14.725,5.6,16.125-25.448,1.358-28.555-.055S670.26,723.9,670.26,723.9Z" transform="translate(-56 -106.019)" fill="#a8a8a8"/>
        <path id="Path_110" data-name="Path 110" d="M703.524,731.875c-10.853,1.4-25.448,1.358-28.555-.055-2.367-1.076-3.827-5.788-4.39-7.976l-.32.051s1.547,7.687,4.655,9.1,17.7,1.456,28.555.055c3.133-.4,4.081-1.651,3.822-3.3C706.977,730.807,705.856,731.575,703.524,731.875Z" transform="translate(-56 -106.019)" opacity="0.2"/>
        <path id="Path_111" data-name="Path 111" d="M178.389,719.109s7.463-1.136,9.527-3.016,11.1-4.92,11.969-2.409,12.808,11.463,4.358,12.553-19.811,1.057-22.23-.043S178.389,719.109,178.389,719.109Z" transform="translate(-56 -106.019)" fill="#a8a8a8"/>
        <path id="Path_112" data-name="Path 112" d="M204.285,725.321c-8.449,1.09-19.811,1.057-22.23-.043-1.842-.838-2.979-4.506-3.417-6.209l-.249.04s1.2,5.984,3.624,7.085,13.781,1.133,22.23.043c2.439-.315,3.177-1.285,2.976-2.566C206.973,724.489,206.1,725.087,204.285,725.321Z" transform="translate(-56 -106.019)" opacity="0.2"/>
        <path id="Path_113" data-name="Path 113" d="M439.7,707.337c0,30.22-42.124,20.873-93.7,20.873s-93.074,9.347-93.074-20.873,42.118-36.793,93.694-36.793S439.7,677.117,439.7,707.337Z" transform="translate(-56 -106.019)" opacity="0.1"/>
        <path id="Path_114" data-name="Path 114" d="M439.7,699.9c0,30.22-42.124,20.873-93.7,20.873s-93.074,9.347-93.074-20.873S295.04,663.1,346.616,663.1,439.7,669.676,439.7,699.9Z" transform="translate(-56 -106.019)" fill="#3f3d56"/>
      </g>
      <g id="docusaurus_keytar" transform="translate(312.271 493.733)">
        <g transform="translate(0, -100) scale(0.5)">
          <g class="G H I J">
            <path d="M436.316 240.087c7.732.02 13.162-2.095 15.106-9.772 1.842-7.273-1.433-16.62-9.982-17.97-4.987-.788-16.906-.177-28.067 1.593 2.595 7.532 4.938 15.74 7.02 24.484 6.062 1.042 11.675 1.655 15.922 1.666zm15.446 232.3c-8.434-9.02-20.476-14.647-33.413-15.726-4.126 10.828-9.124 19.56-14.866 26.967 11.273 1.652 18.73 6.738 27.623 12.456 13.666 8.785 33-10.48 20.656-23.697zM171.953 586.34c-.258 20.1 29.262 20.428 35.16 3.37 3.47-10.04 6.272-18.82 13.216-27.204-12.122-.898-24.108-3.423-35.536-8.07-7.8 10-12.696 20.644-12.84 31.906z" fill="#f6d2a2"/>
            <path d="M37.7 180.366a11.35 11.35 0 1 1-2.374-22.587c1.456-.153 2.872-.013 4.203.355-.407-8.924-.016-17.2 1.12-24.897-24.907.93-36.32 15.463-37.555 33.13-1.3 18.742 11.14 37.468 34.56 39.105 3.65.255 6.895.05 9.774-.552-2.455-9.115-4.338-17.702-5.655-25.792-1.234.647-2.604 1.085-4.073 1.24z" class="K" style="fill:#6AD7E5"/>
          </g>
          <path d="M35.327 157.778a11.35 11.35 0 0 0-10.091 12.479c.656 6.237 6.237 10.763 12.465 10.108 1.47-.154 2.84-.592 4.073-1.24-1.204-7.4-1.942-14.372-2.244-20.994-1.33-.367-2.747-.507-4.203-.354z"/>
          <path d="M309.592 37.468c.5-.68 1.096-1.317 1.774-1.887a11.36 11.36 0 0 1 15.987 1.4c3.967 4.73 3.42 11.73-1.172 15.788a229.85 229.85 0 0 1 16.583 18.841c1.7-1.844 3.317-4.046 4.827-6.66 11.736-20.332 3.176-41.127-13.096-50.52-14.12-8.15-30.86-7.664-44.898 8.17 1.848 1.18 3.665 2.4 5.448 3.66a226.02 226.02 0 0 1 14.547 11.2z" class="G H I J K" style="fill:#6AD7E5"/>
          <path d="M327.354 36.992a11.35 11.35 0 0 0-15.987-1.41 11.3 11.3 0 0 0-1.774 1.887c5.5 4.587 11.06 9.677 16.6 15.312 4.6-4.06 5.138-11.06 1.17-15.8z"/>
          <g class="I G H">
            <g stroke-miterlimit="10">
              <path fill="#f6d2a2" d="M127.003 523.285c1.946 4.36 12.64 4.612 19.787-.134-3.704-6.098-6.562-12.668-8.77-19.53-7.613 5.026-14.067 12.826-11.017 19.665z"/>
              <path d="M420.393 238.42c-2.082-8.744-4.426-16.952-7.02-24.484-6.52-18.92-14.62-33.558-24.152-41.55-9.144-42.65-26.687-75.66-46.455-100.765a230 230 0 0 0-16.583-18.84 229.1 229.1 0 0 0-16.59-15.312c-4.943-4.13-9.822-7.865-14.546-11.2-1.783-1.26-3.6-2.48-5.448-3.66-38.035-24.282-89.932-31.174-159.703 9.577-48.626 28.4-82.414 54.617-89.247 101.05-1.134 7.708-1.525 15.973-1.12 24.897.302 6.622 1.04 13.604 2.244 20.994 1.317 8.1 3.2 16.676 5.655 25.792 2.433 9.035 5.425 18.587 9.033 28.736 12.14 34.15 34.26 67 46.802 85.997 12.7 19.258 24.75 54.917 26.63 90.017 1.416 26.414-1.78 63.135 8.125 93.95 2.207 6.863 5.066 13.434 8.77 19.53 6.542 10.775 15.72 20.08 28.625 26.918 3.076 1.63 6.207 3.075 9.378 4.365 11.428 4.648 23.415 7.173 35.536 8.07 50.47 3.74 103.228-20.578 127.2-35.837 22.083-14.05 41.403-24.28 55.943-43.03 5.742-7.406 10.74-16.14 14.866-26.967 4.834-12.688 8.474-28.246 10.716-47.902 6.42-56.267 2.94-121.584-8.67-170.347z" class="K" style="fill:#6AD7E5"/>
            </g>
            <g fill="#fff">
              <ellipse cx="235.646" cy="67.681" rx="52.2" ry="51.3"/>
              <ellipse cx="118.851" cy="127.081" rx="52.2" ry="51.3"/>
            </g>
          </g>
          <circle cx="263.996" cy="59.581" r="16.2"/>
          <circle fill="#fff" cx="272.096" cy="60.481" r="3.6"/>
          <circle cx="146.095" cy="116.281" r="16.2"/>
          <g fill="#fff">
            <circle cx="154.196" cy="117.181" r="3.6"/>
            <path d="M213.083 169.078c-9.664 4.506-9.3 9.495-16.832 14.72l7.977 20.67c7.355 18.73 28.82 4.246 23.938-6.716l-13.135-29.504a32.66 32.66 0 0 0-1.948.83zm25.892-4.728c-11.064 4.464-14.537.238-23.943 3.898l13.135 29.504c4.88 10.962 30.008 4.7 21-13.295l-10.2-20.107zM322 287.733c-6.82-3.034-19.595-4.724-31.342-3.582-1.084 5.84-3.293 11.6-7.715 17.345 9.8 5.708 19.227 9.624 26.928 11.7 7.463 2.02 13.256 1.383 17.12-5.53 3.662-6.55 2.918-16.427-4.992-19.944z" class="G H I J"/>
          </g>
          <g class="G H I J">
            <path fill="none" d="M265.866 316.368c7.8-4.978 13.256-9.92 17.066-14.872 4.422-5.745 6.63-11.503 7.715-17.345.854-4.598 1.018-9.247 1.018-13.982" class="L"/>
            <path fill="#f6d2a2" d="M241.202 134.614c-5.883-2.508-11.642-2.74-18.45-1.058-1.165 6.392-7.955 13.58-17.718 17.926-9.4 4.18-18.893 4.56-24.525 1.55-6.176 4.3-9.948 9-11.9 15.435-3.83 12.607 6.07 24.543 16.988 20.563 4.838-1.764 8.174-3.5 10.656-5.232 7.532-5.225 7.168-10.214 16.832-14.72a32.4 32.4 0 0 1 1.949-.83c9.406-3.66 12.88.566 23.943-3.898 2.062-.832 4.38-1.96 7.06-3.503 10.066-5.805 7.288-21.062-4.833-26.232z"/>
          </g>
          <path d="M205.034 151.482c9.763-4.347 16.553-11.534 17.718-17.926.352-1.932.196-3.792-.554-5.48-3.234-7.265-16.163-8.566-28.878-2.906s-20.4 16.14-17.165 23.405c.846 1.9 2.36 3.388 4.354 4.454 5.632 3.012 15.135 2.633 24.525-1.548z"/>
          <path d="M451.858 227.863c-4.442-.877-10.908-1.992-16.275-2.222M450.958 492c-1.538-4.26-5.707-12.555-14.208-16.15M186.405 600.925c-1.58-4.777-3.198-13.38.462-23.578m141.17-271.927c-4.063-1.998-10.02-4.748-15.145-6.36" fill="none" class="G H I J L"/>
        </g>
        
        
      </g>
    </g>
  </svg>
  